<svg xmlns="http://www.w3.org/2000/svg" width="16" height="17" fill="none" xmlns:v="https://vecta.io/nano"><path d="M8 4.783c-2.25 0-4.043 1.828-4.043 4.043A4.02 4.02 0 0 0 8 12.869c2.215 0 4.043-1.793 4.043-4.043A4.07 4.07 0 0 0 8 4.783zm0 6.68c-1.441 0-2.637-1.16-2.637-2.637 0-1.441 1.16-2.602 2.637-2.602 1.441 0 2.602 1.16 2.602 2.602 0 1.477-1.16 2.637-2.602 2.637zm5.133-6.82c0-.527-.422-.949-.949-.949s-.949.422-.949.949.422.949.949.949.949-.422.949-.949zm2.672.949c-.07-1.266-.352-2.391-1.266-3.305S12.5 1.092 11.234 1.021c-1.301-.07-5.203-.07-6.504 0-1.266.07-2.355.352-3.305 1.266C.512 3.201.23 4.326.16 5.592a100.3 100.3 0 0 0 0 6.504c.07 1.266.352 2.355 1.266 3.305.949.914 2.039 1.195 3.305 1.266 1.301.07 5.203.07 6.504 0 1.266-.07 2.391-.352 3.305-1.266.914-.949 1.195-2.039 1.266-3.305.07-1.301.07-5.203 0-6.504zm-1.687 7.875c-.246.703-.809 1.231-1.477 1.512-1.055.422-3.516.316-4.641.316-1.16 0-3.621.105-4.641-.316-.703-.281-1.23-.809-1.512-1.512-.422-1.019-.316-3.48-.316-4.641 0-1.125-.105-3.586.316-4.641a2.71 2.71 0 0 1 1.512-1.477c1.02-.422 3.48-.316 4.641-.316 1.125 0 3.586-.105 4.641.316.668.246 1.195.809 1.477 1.477.422 1.055.316 3.516.316 4.641 0 1.16.105 3.621-.316 4.641z" fill="#1890ff"/></svg>