<svg xmlns="http://www.w3.org/2000/svg" version="1.1" xmlns:xlink="http://www.w3.org/1999/xlink" xmlns:svgjs="http://svgjs.dev/svgjs" width="1500" height="1556" viewBox="0 0 1500 1556"><g transform="matrix(1,0,0,1,1.121615804216276,0.6311228098807078)"><svg viewBox="0 0 238 247" data-background-color="#ffffff" preserveAspectRatio="xMidYMid meet" height="1556" width="1500" xmlns="http://www.w3.org/2000/svg" xmlns:xlink="http://www.w3.org/1999/xlink"><g id="tight-bounds" transform="matrix(1,0,0,1,-0.1779630409356514,-0.09997365579205564)"><svg viewBox="0 0 238.35592608187133 247.19999999999996" height="247.19999999999996" width="238.35592608187133"><g><svg viewBox="0 0 238.35592608187133 247.19999999999996" height="247.19999999999996" width="238.35592608187133"><g><svg viewBox="0 0 238.35592608187133 247.19999999999996" height="247.19999999999996" width="238.35592608187133"><g id="textblocktransform"><svg viewBox="0 0 238.35592608187133 247.19999999999996" height="247.19999999999996" width="238.35592608187133" id="textblock"><g><svg viewBox="0 0 238.35592608187133 247.19999999999996" height="247.19999999999996" width="238.35592608187133"><path d="M237.798 53.02C236.677 27.36 233.484 20.227 233.484 20.227 223.679-6.202 211.442-0.506 200.45 3.292 181.041 3.446 161.712 9.091 142.348 12.119 101.706 12.581 60.715 4.986 20.274 23.717 16.476 29.464-3.941 24.846 0.676 56.304 1.886 69.39 6.301 83.913 6.166 95.922 6.772 98.026 7.612 93.202 7.971 96.23 9.226 104.39 11.276 100.541 12.957 105.365 10.615 118.246 12.296 128.971 13.898 140.21 11.075 143.135 7.455 141.749 5.83 151.449 5.662 158.479 4.755 157.145 3.757 156.837 3.029 156.632 1.561 157.402 1.807 159.608 2.648 167.152-0.96 171.514 1.303 178.904-0.254 186.91 2.379 193.838 2.02 202.511 1.976 204.255 2.222 205.744 2.614 206.154 4.351 208.361 1.819 212.672 2.088 217.342 19.905 249.262 39.234 227.195 57.488 241.872 62.228 231.608 58.665 245.516 60.559 243.36 62.038 240.846 63.113 251.263 64.783 245.362 65.041 243.668 64.649 239.665 65.567 240.435 66.049 240.846 66.475 240.743 66.542 238.382 66.643 234.841 65.758 237.048 65.523 235.201 68.066 225.861 67.439 248.081 69.826 247.158 69.714 244.438 69.019 240.538 70.442 241.051 71.854 237.151 71.899 233.918 73.154 242.693 73.198 244.592 73.423 245.926 73.781 246.85 77.703 237.305 81.603 250.237 85.715 245.926 88.236 241.205 90.657 248.492 93.212 246.696 94.108 245.259 95.016 242.693 95.879 247.004 106.446 247.928 117.707 244.079 127.725 247.158 154.495 241.41 183.103 249.518 211.33 241.923 217.986 238.998 224.9 234.841 231.388 231.506 231.388 231.506 236.644 222.371 236.644 181.316S237.764 145.393 237.932 112.703C238.1 80.013 238.885 78.679 237.764 53.02Z" opacity="1" fill="#ed1703" data-fill-palette-color="tertiary"></path><g transform="matrix(1,0,0,1,55.76832,26.230666666666668)"><svg width="126.81928608187133" viewBox="1.98 -34.79 22.65 34.79" height="194.73866666666663" data-palette-color="#ffffff"><path d="M7.84 0L7.84 0 2.17 0Q1.98 0 1.98-0.24L1.98-0.24 2.08-34.59Q2.08-34.79 2.27-34.79L2.27-34.79 8.37-34.79Q8.57-34.79 8.72-34.59L8.72-34.59 13.28-28 17.82-34.59Q17.97-34.79 18.19-34.79L18.19-34.79 24.32-34.79Q24.54-34.79 24.54-34.59L24.54-34.59 24.63-0.24Q24.63 0 24.44 0L24.44 0 18.77 0Q18.58 0 18.58-0.24L18.58-0.24 18.53-25.76 13.28-18.14 8.08-25.76 8.03-0.24Q8.03 0 7.84 0Z" opacity="1" transform="matrix(1,0,0,1,0,0)" fill="#ffffff" class="wordmark-text-0" data-fill-palette-color="quaternary" id="text-0"></path></svg></g></svg></g></svg></g></svg></g><g></g></svg></g><defs></defs></svg><rect width="238.35592608187133" height="247.19999999999996" fill="none" stroke="none" visibility="hidden"></rect></g></svg></g></svg>